<svg xmlns="http://www.w3.org/2000/svg" viewBox="0 0 500 364.86"><defs><style>.cls-1{fill:#fff;}.cls-2{fill:#dff3fc;}.cls-3{fill:#a2c7eb;}.cls-20,.cls-21,.cls-27,.cls-28,.cls-29,.cls-4,.cls-7{fill:none;}.cls-4{stroke:#a2c7eb;}.cls-20,.cls-21,.cls-27,.cls-28,.cls-29,.cls-4,.cls-5,.cls-7{stroke-miterlimit:10;}.cls-5,.cls-6{fill:#0097d8;}.cls-5{stroke:#0097d8;}.cls-7{stroke:#6f8bbf;}.cls-20,.cls-21,.cls-27,.cls-28,.cls-29,.cls-7{stroke-linecap:round;}.cls-8{fill:#e06a58;}.cls-9{fill:#f2ae30;}.cls-10{fill:#0a2240;}.cls-11{fill:#f9a07b;}.cls-12{fill:#ffc73c;}.cls-13{fill:#fb3;}.cls-14{fill:#fce172;}.cls-15{fill:#325f73;}.cls-16{fill:#0b2d50;}.cls-17{fill:#3c738c;}.cls-18{fill:#56c4f9;}.cls-19{fill:#225570;}.cls-20{stroke:#0b2d50;}.cls-20,.cls-21,.cls-27{stroke-width:2px;}.cls-21,.cls-28{stroke:#cc454e;}.cls-22{fill:#262d40;}.cls-23{fill:#cc454e;}.cls-24{fill:#e8729b;}.cls-25{fill:#3d86e0;}.cls-26{fill:#3a92c9;}.cls-27{stroke:#3a92c9;}.cls-29{stroke:#f2ae30;}</style></defs><g id="BACKGROUND"><rect class="cls-1" width="500" height="364.86"/></g><g id="OBJECTS"><path class="cls-2" d="M430.53,344.68c47.49-36.11,68.64-136.24-8.47-185.34-51.05-32.5-82.8-14-140.23-35.46C211.72,97.64,201.27,18.36,116,57.37,70.81,78,39.49,136.26,34,202.44c-5.4,64.81,17.57,109.28,64.51,139.71C208.72,346.84,319.17,346,430.53,344.68Z"/><path class="cls-2" d="M235.43,59.87C228.26,88.67,254.9,117.18,283,129s60.24,10.42,90.3,4.78c13-2.43,26.31-5.85,36.39-14.12S425.57,97,420.05,85.43C415.17,75.2,403.31,70,392,67.27s-23.32-3.79-33.4-9.45c-9.56-5.37-16.34-14.26-24.65-21.3-15.35-13-36.92-19.43-56.89-15.32S241.53,35.39,235.43,59.87Z"/><path class="cls-3" d="M450.29,192.34V170.55H442a42.11,42.11,0,0,0-4.44-10.71l5.84-5.85L428,138.58l-5.85,5.84A42.32,42.32,0,0,0,411.46,140v-8.26H389.68V140A42.47,42.47,0,0,0,379,144.42l-5.85-5.84L357.71,154l5.84,5.85a42.47,42.47,0,0,0-4.44,10.71h-8.26v21.79h8.26a42.47,42.47,0,0,0,4.44,10.71l-5.84,5.85,15.41,15.41,5.85-5.85a42.5,42.5,0,0,0,10.71,4.45v8.26h21.78v-8.26a42.35,42.35,0,0,0,10.71-4.45l5.85,5.85,15.41-15.41-5.84-5.85A42.11,42.11,0,0,0,442,192.34Zm-49.71,8a18.88,18.88,0,1,1,18.87-18.88A18.88,18.88,0,0,1,400.58,200.32Z"/><path class="cls-4" d="M384.45,246.93l-4.14-10.81-4.1,1.58a22.24,22.24,0,0,0-4.24-4.47l1.79-4-10.58-4.71-1.79,4a22.58,22.58,0,0,0-6.15-.17l-1.58-4.1-10.8,4.15,1.57,4.1a22.19,22.19,0,0,0-4.46,4.24L336,235l-4.71,10.58,4,1.79a22.57,22.57,0,0,0-.16,6.15L331,255l4.15,10.81,4.09-1.57a22.47,22.47,0,0,0,4.24,4.46l-1.78,4,10.57,4.71,1.79-4a22.64,22.64,0,0,0,6.16.16l1.57,4.1,10.81-4.15L371,269.48a22.52,22.52,0,0,0,4.47-4.24l4,1.78,4.71-10.57-4-1.79a22.64,22.64,0,0,0,.17-6.16Zm-23.13,13.42a10,10,0,1,1,5.76-13A10,10,0,0,1,361.32,260.35Z"/><path class="cls-4" d="M349.05,209l-2.8-7.3-2.77,1.06a15.21,15.21,0,0,0-2.86-3l1.2-2.71-7.14-3.18-1.21,2.71a14.84,14.84,0,0,0-4.16-.11l-1.06-2.77-7.3,2.8,1.06,2.77a15.21,15.21,0,0,0-3,2.86l-2.71-1.2-3.18,7.14,2.71,1.21a14.83,14.83,0,0,0-.11,4.16l-2.77,1.06,2.8,7.3,2.77-1.06a15.21,15.21,0,0,0,2.86,3l-1.2,2.71,7.14,3.18,1.21-2.71a14.83,14.83,0,0,0,4.16.11l1.06,2.77L341,227,340,224.26a15.21,15.21,0,0,0,3-2.86l2.71,1.2,3.18-7.14-2.71-1.21a14.84,14.84,0,0,0,.11-4.16Zm-15.63,9.06a6.77,6.77,0,1,1,3.9-8.75A6.77,6.77,0,0,1,333.42,218.09Z"/><path class="cls-5" d="M346.51,81.2a34.43,34.43,0,1,1-34.42-34.43A34.38,34.38,0,0,1,346.51,81.2Z"/><circle class="cls-1" cx="312.09" cy="69.87" r="11.27" transform="translate(-6.21 38.76) rotate(-7.04)"/><path class="cls-1" d="M333.43,103.87a34.45,34.45,0,0,1-42.69,0c2.2-9.69,4.23-18.05,6.33-20.17,3-3,10.89-4.71,15-4.71s12.4,2.11,13.93,3.64C329.12,85.74,331.81,94.33,333.43,103.87Z"/><path class="cls-6" d="M262.61,166.06v-17a8.4,8.4,0,0,1,8.4-8.4h53.56a8.4,8.4,0,0,1,8.4,8.4v17a8.4,8.4,0,0,1-8.4,8.4H271A8.4,8.4,0,0,1,262.61,166.06Z"/><polyline class="cls-6" points="285.23 165.17 259.31 190.42 301.32 169.19"/><path class="cls-1" d="M269.11,148.64v-.09a1.25,1.25,0,0,1,1.25-1.25h26.48a1.25,1.25,0,0,1,1.25,1.25v.09a1.25,1.25,0,0,1-1.25,1.25H270.36A1.25,1.25,0,0,1,269.11,148.64Z"/><path class="cls-1" d="M299.28,148.64v-.09a1.25,1.25,0,0,1,1.25-1.25h23.11a1.25,1.25,0,0,1,1.25,1.25v.09a1.25,1.25,0,0,1-1.25,1.25H300.53A1.25,1.25,0,0,1,299.28,148.64Z"/><path class="cls-1" d="M289.19,154.33v-.09a1.25,1.25,0,0,1,1.25-1.25h33.2a1.25,1.25,0,0,1,1.25,1.25v.09a1.25,1.25,0,0,1-1.25,1.25h-33.2A1.25,1.25,0,0,1,289.19,154.33Z"/><path class="cls-1" d="M269.11,154.33v-.09a1.25,1.25,0,0,1,1.25-1.25h14.83a1.25,1.25,0,0,1,1.25,1.25v.09a1.25,1.25,0,0,1-1.25,1.25H270.36A1.25,1.25,0,0,1,269.11,154.33Z"/><path class="cls-1" d="M293.8,160v-.09a1.25,1.25,0,0,1,1.25-1.25h28.59a1.25,1.25,0,0,1,1.25,1.25V160a1.25,1.25,0,0,1-1.25,1.25H295.05A1.25,1.25,0,0,1,293.8,160Z"/><path class="cls-1" d="M269.11,160v-.09a1.25,1.25,0,0,1,1.25-1.25h19.75a1.25,1.25,0,0,1,1.25,1.25V160a1.25,1.25,0,0,1-1.25,1.25H270.36A1.25,1.25,0,0,1,269.11,160Z"/><path class="cls-1" d="M269.11,165.71v-.09a1.25,1.25,0,0,1,1.25-1.25h7.33a1.25,1.25,0,0,1,1.25,1.25v.09a1.25,1.25,0,0,1-1.25,1.25h-7.33A1.25,1.25,0,0,1,269.11,165.71Z"/><path class="cls-1" d="M281.53,165.71v-.09a1.25,1.25,0,0,1,1.25-1.25h40.86a1.25,1.25,0,0,1,1.25,1.25v.09a1.25,1.25,0,0,1-1.25,1.25H282.78A1.25,1.25,0,0,1,281.53,165.71Z"/><circle class="cls-6" cx="100.37" cy="128.03" r="33.12" transform="translate(-58.05 165.01) rotate(-65.05)"/><circle class="cls-1" cx="92.56" cy="144.28" r="8.03" transform="translate(-42.58 38.83) rotate(-19.35)"/><polygon class="cls-6" points="88.35 147.16 87.96 142.07 92.18 139.19 96.78 141.4 97.17 146.49 92.95 149.37 88.35 147.16"/><circle class="cls-1" cx="108.17" cy="111.77" r="8.03" transform="translate(-31.31 42.94) rotate(-19.67)"/><polygon class="cls-6" points="104.19 114.17 104.47 107.69 109.34 103.43 113.95 105.64 113.67 112.11 108.79 116.38 104.19 114.17"/><path class="cls-1" d="M98.12,140.57,92,137.62l4.54-10.46c.29-.67.6-1.32.94-2l5.33-10.08,6.14,2.94-4.38,10.31c-.34.8-.71,1.58-1.12,2.34Z"/><path class="cls-6" d="M123.37,145.85c1.19-.55,20.19.31,20.19.31l-13.7-12.57Z"/><circle class="cls-6" cx="177.36" cy="59.1" r="32.55" transform="translate(52.7 198.42) rotate(-66.61)"/><rect class="cls-1" x="176.28" y="31.36" width="2.17" height="27.34"/><rect class="cls-1" x="164.26" y="53.62" width="2.17" height="27.71" transform="translate(203.98 241.84) rotate(-124.69)"/><path class="cls-1" d="M180.36,59.1a3,3,0,1,1-3-3A3,3,0,0,1,180.36,59.1Z"/><path class="cls-3" d="M265.74,279.52c-1.93-29.76,11.09-60.56,33-78.18C299.44,231.25,286.55,261.52,265.74,279.52Z"/><path class="cls-7" d="M295.18,209.35a394.73,394.73,0,0,0-23.87,53.83c-8.07,22.57-14.42,46.55-28.24,65.47"/><path class="cls-3" d="M258.82,298.24c11.1-24.83,33.13-43.59,57.42-48.9C305.9,276,282.64,296.25,258.82,298.24Z"/><path class="cls-7" d="M310.28,254.81q-24.88,21.9-50.61,42.56"/><path class="cls-3" d="M252.27,319.87c14.83-22.15,42.19-33.71,64.83-27.39C300.45,314.35,273,325.94,252.27,319.87Z"/><path class="cls-7" d="M311.67,294.08a215.86,215.86,0,0,1-62,26.54"/><path class="cls-3" d="M260.28,290.71c4.74-24.94-2.37-52.74-18.2-71.13C235.59,244.09,241.78,272.81,260.28,290.71Z"/><path class="cls-7" d="M243.71,225.94A270,270,0,0,0,261,292.11"/><path class="cls-3" d="M252.14,312c-2-25.64-15.16-49.72-34.38-63a109.57,109.57,0,0,0,10.45,38.57C234.8,301.18,244.48,309.85,252.14,312Z"/><path class="cls-7" d="M220.61,254.13a203.69,203.69,0,0,0,32,58.36"/><path class="cls-3" d="M400.57,305.8c10.49-27.29,34.62-49.43,61.23-56.17C450.14,276.55,426.34,298.25,400.57,305.8Z"/><path class="cls-7" d="M455.35,255.3a387.74,387.74,0,0,0-43.16,38.21c-16.38,16.82-31.83,35.58-51.8,46.8"/><path class="cls-3" d="M386.78,319.65c20-17.59,47.15-25.31,70.79-20.13C437.53,319,408.65,327.6,386.78,319.65Z"/><path class="cls-7" d="M450.06,302q-31,9.36-62.18,17.26"/><path class="cls-3" d="M372.12,336.25c22.19-13.68,51.11-12.81,68.53,2.06C417,351,388,350.12,372.12,336.25Z"/><path class="cls-7" d="M435.2,337.51a209.06,209.06,0,0,1-65.7-1.67"/><path class="cls-3" d="M391.16,313.54c14.41-20.28,19.52-48,13.07-70.79C388.44,261.93,382.14,290,391.16,313.54Z"/><path class="cls-7" d="M403.06,249.07a265.89,265.89,0,0,0-11.85,66"/><path class="cls-3" d="M375.26,329.14c8.72-23.66,7-50.48-4.56-70.16a108.18,108.18,0,0,0-6.57,38.62C364.34,312.46,369.34,324.14,375.26,329.14Z"/><path class="cls-7" d="M371.08,264.76a200.54,200.54,0,0,0,4.37,65.05"/><path class="cls-3" d="M103.27,258.09C92.57,225.38,62.73,199,28,191.45,42.61,219.75,69.08,242.27,103.27,258.09Z"/><path class="cls-3" d="M105.08,263.16a99,99,0,0,0-78.22-7.79A110.44,110.44,0,0,0,105.08,263.16Z"/><path class="cls-3" d="M111.56,270.26c-25.32-3.51-51.83,2.73-72.39,17C62.48,295.77,90.45,290.27,111.56,270.26Z"/><path class="cls-3" d="M119.45,285.75c-25.07-.1-49.72,11.81-64.46,31.16a55.15,55.15,0,0,0,33.25-3.74C98.47,308.54,107.05,300.63,119.45,285.75Z"/><path class="cls-3" d="M137.13,311.68c-24.73-4.24-51.06,3.42-68.89,20a55.37,55.37,0,0,0,33.44,1.82C112.56,330.66,122.37,324.28,137.13,311.68Z"/><path class="cls-3" d="M110.44,259.64C94.11,237.64,89.68,208,99,182.76c7.08,12,13.19,24.68,16,38.15S117.3,248.76,110.44,259.64Z"/><path class="cls-3" d="M120.41,280.87a75.84,75.84,0,0,1,21-65.09C143.36,240,136,264.61,120.41,280.87Z"/><path class="cls-7" d="M35.61,197.31c49.69,31.79,88.54,79.17,109.05,133"/><path class="cls-7" d="M100.5,194.36a394.11,394.11,0,0,1,11,74.72"/><path class="cls-7" d="M137.71,225.28a145.67,145.67,0,0,1-17.87,56.57"/><path class="cls-7" d="M37.32,255.94a402.84,402.84,0,0,0,69.08,7"/><path class="cls-7" d="M51,285.35a185.78,185.78,0,0,0,60.77-15"/><path class="cls-7" d="M63.63,313.38l58.14-29"/><path class="cls-7" d="M76.23,330.45c25.31-4.88,32.82-10.71,60.91-18.77"/><path class="cls-8" d="M236.42,284.1s2.19,20.07,4.64,21.68c4.38,2.89,55.08,9.57,55.08,9.57l-1.66,13.19s-69.44,6.24-72.39,2.77c-5.12-6-14.12-35.06-14.12-35.06Z"/><path class="cls-9" d="M202.94,232.43,208.55,219s15.22,7.15,20.24,16c5.37,9.44,11.94,59.63,11.94,59.63s-26.87,6.19-31.81,3.56S202.94,232.43,202.94,232.43Z"/><path class="cls-10" d="M160.21,169.91c-3.93-1.44-8.09-2.7-12.3-2.38s-8.51,2.55-9.94,6.25c-1,2.62-.55,5.71-2.16,8.07s-4.6,3.2-7.46,3.39-5.76-.18-8.61.19c-8.8,1.17-15.08,10.73-12.19,18.56,1.15,3.12,3.51,6.1,3,9.35-.57,3.48-4.22,5.77-5.72,9-2,4.3.39,9.51,4.32,12.44s9,4,14,4.77c6.83,1,13.88,1.5,20.63.06s13.2-5,16.69-10.56c1.55-2.46,2.49-5.24,4.29-7.55,3.72-4.77,10.31-6.62,15.5-10,5.67-3.71,9.83-10.93,6.49-16.58-3.22-5.43-11.6-6.64-15-12-1.39-2.21-1.72-4.84-2.62-7.25S166,172,160.21,169.91Z"/><path class="cls-11" d="M183.11,236.52c1,1.14,2.16,2.39,3.78,2.5s3.14-1.09,4.24-2.26a43,43,0,0,0,11-21c-1.41-.8-2.77-1.57-4-2.29a6.07,6.07,0,0,1-2.49-2.74,5.26,5.26,0,0,1-.37-2.58,73.74,73.74,0,0,1,4.15-19.34C186.83,186,175,182.62,168.2,176.94c-.83,3.5-1.81,10.35-3.9,17.14-2.23,7.19-5.71,14.3-11.61,17.36A124.42,124.42,0,0,1,183.11,236.52Z"/><path class="cls-8" d="M195.22,208.16a5.25,5.25,0,0,0,.37,2.58c-7.42,9-24-2.76-31.29-16.65,2.09-6.79,3.07-13.64,3.9-17.14,6.79,5.68,18.63,9.05,31.17,11.87A73.66,73.66,0,0,0,195.22,208.16Z"/><path class="cls-12" d="M215.88,317c-1.64,10.86,10.08,22.55,10.37,28.35-24.89,0-77,1.52-103.58-2.09-1.21-6.7,11.9-21.77,11.9-36.65,0-2-.08-4.13-.24-6.45-.42-6.64-1.4-14.54-2.49-22.64-3-21.73-6.9-45-4-49.79,5.7-9.39,19-15.77,25.64-18.51,2.27-.94,3.75-1.45,3.86-1.51,8.29,14.14,25.16,26.2,31.53,25.66,1.77-.14,7-2,10.49-19.44,1.35.77,2.7,1.48,4,2.17,6.59,3.43,12.77,6.26,14.55,10.67,4.7,11.61,9.31,40.88,8.29,51.29S221,296.54,218,307.08c-.69,2.47-1.32,5.09-1.83,7.91C216.08,315.62,216,316.28,215.88,317Z"/><path class="cls-13" d="M226.25,345.31c-24.89,0-77,1.52-103.58-2.09-1.21-6.7,11.9-21.77,11.9-36.65,0-2-.08-4.13-.24-6.45-.42-6.64-1.4-14.54-2.49-22.64,4.71,5,11.58-16,14.62-9.88,16.45,33.2,29.42,41.93,52,41.93A86.54,86.54,0,0,0,218,307.08c-.69,2.47-1.32,5.09-1.83,7.91q-.18,1-.33,2C214.24,327.81,226,339.5,226.25,345.31Z"/><path class="cls-14" d="M203.41,216.06c-1.07,7.77-4.24,18.24-13.46,21-12.46,3.73-30.49-19.55-36.46-27.88,2.27-.94,3.75-1.45,3.86-1.51,8.29,14.14,25.16,26.2,31.53,25.66,1.77-.14,7-2,10.49-19.44C200.72,214.65,202.07,215.36,203.41,216.06Z"/><polygon class="cls-15" points="208.53 333.62 208.44 342.29 363.44 343.21 363.76 333.38 208.53 333.62"/><polygon class="cls-15" points="430.62 256.27 427.17 252.77 314.27 252.03 257.63 333.94 260.59 336.32 430.62 256.27"/><polygon class="cls-16" points="316.45 255.06 260.59 336.32 367.29 336.85 430.62 256.27 316.45 255.06"/><ellipse class="cls-17" cx="343.41" cy="300.72" rx="12.42" ry="6.21"/><ellipse class="cls-18" cx="222.1" cy="176.95" rx="17.39" ry="11.47" transform="translate(7.46 362.87) rotate(-79.44)"/><path class="cls-16" d="M233.39,149.41c-1.16,8.22-4.83,17.28-10.18,27.29-1.88-8.2-3.08-18.19-4.74-28.18s-3.84-20-7.57-28.2a49,49,0,0,0-2.74-5.14,18.25,18.25,0,0,1,6.58.59,22,22,0,0,1,9,4.91A31.56,31.56,0,0,1,232.51,135,32.16,32.16,0,0,1,233.39,149.41Z"/><path class="cls-11" d="M227.11,157.91c-.06,1.62-.17,3.27-.32,4.91-2.28,26.6-13.45,44.85-30.54,44.85-24.13,0-39.77-27.06-39.77-53.57,0-26.15,16-45.08,34.77-42.89,10.81,1.24,18.71,4.83,24.32,10.09a33.15,33.15,0,0,1,8.22,12.54,54.83,54.83,0,0,1,3.31,18.06s0,0,0,.06C227.2,153.9,227.18,155.88,227.11,157.91Z"/><path class="cls-8" d="M227.11,157.91a26.73,26.73,0,0,0-3.25-7.33,75.93,75.93,0,0,1-47.27,7.59l-9.06,7.57c.06-12.1.23-20.29,4.95-26.15,4.43-5.5,11.82-7.57,18.82-8.47a87.05,87.05,0,0,1,23.75.15,24,24,0,0,1,8.75,2.59,54.83,54.83,0,0,1,3.31,18.06s0,0,0,.06C227.2,153.9,227.18,155.88,227.11,157.91Z"/><path class="cls-16" d="M230.59,141.53a44.58,44.58,0,0,1-12.12,7c-13.26,5.35-30.49,7.12-43.92,6.47-6.6,14.5-9.27,19.7-11,32.35-6.45-6-11.7-17.13-13.26-25.84a59.1,59.1,0,0,1,1-26.32A39.36,39.36,0,0,1,171.44,111a37.74,37.74,0,0,1,4.32-2c8.51-3.29,18.1-3,26.83-.32a32,32,0,0,1,12.14,7.06c6.81,6.15,11,14.48,13.74,20.72C229.33,138.41,230,140.14,230.59,141.53Z"/><path class="cls-19" d="M233.39,149.41a40.71,40.71,0,0,0-2.53-8.45,29.12,29.12,0,0,0-2.38-4.47,24.51,24.51,0,0,0-12.77-10.41,47,47,0,0,0-4.8-5.75,37,37,0,0,0-20.67-10.9,39.27,39.27,0,0,0-18.78,1.6,37.74,37.74,0,0,1,4.32-2c8.51-3.29,18.1-3,26.83-.32a32,32,0,0,1,12.14,7.06,22,22,0,0,1,9,4.91A31.56,31.56,0,0,1,232.52,135,32.3,32.3,0,0,1,233.39,149.41Z"/><path class="cls-20" d="M182.24,165.72c4.46-2.55,9.09-3.7,15.58-1.33"/><path class="cls-20" d="M212.78,165.54c3.82-2.85,9.48-3.14,12.43,0"/><path class="cls-21" d="M208.17,180.08c.39,2,.18,6.49-.78,8.5"/><ellipse class="cls-22" cx="193.1" cy="178.54" rx="1.84" ry="2.9"/><ellipse class="cls-22" cx="217.15" cy="177.19" rx="1.84" ry="2.9"/><path class="cls-23" d="M205.89,192.53a14.13,14.13,0,0,1-1,1.65,11.42,11.42,0,0,1-5.43,4.23h0a7.09,7.09,0,0,1-3.49.23c-3.76-.67-4.75-4.14-4.93-6.81a14.29,14.29,0,0,1,0-1.44,13.63,13.63,0,0,1,.14-1.8C197.08,191.89,205.89,192.53,205.89,192.53Z"/><path class="cls-1" d="M205.89,192.53a14.13,14.13,0,0,1-1,1.65c-3.06,0-9.32-1.61-13.89-3.79a13.63,13.63,0,0,1,.14-1.8C197.08,191.89,205.89,192.53,205.89,192.53Z"/><path class="cls-24" d="M199.4,198.4a7.09,7.09,0,0,1-3.49.23c-3.76-.67-4.75-4.14-4.93-6.81a10.24,10.24,0,0,1,8.42,6.58Z"/><path class="cls-25" d="M163.65,161.13a69.13,69.13,0,0,1,5-24.86c6.51-15.55,19.78-22.2,32.65-22.65a35.07,35.07,0,0,1,25.22,9.86s-5.05-8.91-15-11.47c-6.54-1.68-16.41-2-24.33,1.27-8.16,3.31-18.33,12.5-22,22.21s-5.46,24.83-5.46,24.83Z"/><ellipse class="cls-18" cx="161.5" cy="175.38" rx="12.09" ry="18.32" transform="matrix(0.99, -0.1, 0.1, 0.99, -17.27, 17.64)"/><ellipse class="cls-25" cx="158.28" cy="176.71" rx="7.85" ry="13.81" transform="translate(-24.5 25.48) rotate(-8.55)"/><ellipse class="cls-26" cx="201.38" cy="204.03" rx="6.44" ry="4.01"/><path class="cls-27" d="M169,190.62s9.46,12.16,25.91,13.41"/><path class="cls-11" d="M208.44,310.47l-.62,16S150,343.79,140.44,338.31c-4.66-2.68-9-17.42-12.26-31.81-3.4-15.12-5.58-29.84-5.58-29.84L156.5,270s0,20.67,1.17,32.62c.41,4.45,1,7.69,1.79,8.22C162.45,312.83,208.44,310.47,208.44,310.47Z"/><path class="cls-8" d="M157.67,302.62c-6.16,2-18,5.09-29.49,3.87-3.4-15.12-5.58-29.84-5.58-29.84L156.5,270S156.52,290.67,157.67,302.62Z"/><path class="cls-11" d="M206.79,310.63c8.6-1.84,23.16-6.26,29.2-7.78,4.29-1.08,15.46,4.7,18.41,10.15,1.29,2.38,2.51,15.86-2,14.47-2.24-.7-1.87-6.48-2.57-8.84-.57-1.92-2.39-3.78-5.16-5.38,1.85,4.61,1.78,8.63,1.58,13.61a7.06,7.06,0,0,1-.64,3.2,2.3,2.3,0,0,1-2.7,1.21c-1-.42-1.37-1.69-1.6-2.8a91,91,0,0,1-1.91-12c.08,4.27,0,8.55-.28,12.81-.2,3.26-1.82,5.05-3.81,4.48-.89-.25-1.25-1.07-1.63-2.15-.6,2.09-2.1,4.4-4,3.52-1.18-.53-1.91-4.79-1.7-9.17a25.66,25.66,0,0,1-12.76,3.51c-4.34.2-8.78-.61-11.39-3.56A76.72,76.72,0,0,1,206.79,310.63Z"/><path class="cls-28" d="M233.81,330.93a30.57,30.57,0,0,0-.89-10.31"/><path class="cls-12" d="M152.69,236.48c-2.46-6.93-11.47-21.11-11.47-21.11s-13.75,5.72-18.63,15.43c-8.26,16.44-4.06,63.64-4.06,63.64,11.13,4.66,33.47,4.73,43,3.39C161.51,297.83,157.62,250.33,152.69,236.48Z"/><path class="cls-29" d="M154.44,239.38a305.75,305.75,0,0,1,6.4,51.09"/><rect class="cls-16" x="54.46" y="340.36" width="394.28" height="9.89"/></g></svg>