<svg id="Camada_1" data-name="Camada 1" xmlns="http://www.w3.org/2000/svg" viewBox="0 0 409.54 238.46"><defs><style>.cls-1{fill:#eff8fe;}.cls-2{fill:#d4657d;}.cls-2,.cls-3,.cls-4{stroke:#1d1d1b;}.cls-2,.cls-3,.cls-4,.cls-5{stroke-linejoin:round;stroke-width:5px;}.cls-3{fill:#f6a560;}.cls-4,.cls-5{fill:none;stroke-linecap:round;}.cls-5{stroke:#3c3c3b;}.cls-6{fill:#e8e8e7;}</style></defs><path class="cls-1" d="M275.29,37.58c-38-21.73-111.69-25.82-149.11-1.89C87.38,60.49,25.66,184.47,25.66,184.47H382.81S313.31,59.3,275.29,37.58Z"/><polygon class="cls-2" points="275.29 86.87 214.46 154.55 199.25 116.53 275.29 86.87"/><polygon class="cls-3" points="193.54 150.55 198.77 113.95 173.58 91.14 275.29 86.87 193.54 150.55"/><line class="cls-4" x1="267.21" y1="90.3" x2="227.51" y2="105.5"/><line class="cls-4" x1="215.99" y1="108.96" x2="199.9" y2="114.35"/><path class="cls-4" d="M173.58,129.58c-12.15,5.25-16.6,7.62-21.74,8.35-6,.85-11.26.71-16.28-1.7s-8.71-7.09-9.5-8.08a32.2,32.2,0,0,1-3-4.55,26.26,26.26,0,0,1-3-7.43,22.41,22.41,0,0,1,.38-12.41,15.47,15.47,0,0,1,7-9.35,21,21,0,0,1,11.4-2.85,16.59,16.59,0,0,1,10,3.32,17.3,17.3,0,0,1,4.75,19.49,17.59,17.59,0,0,1-7.6,8.08,23.35,23.35,0,0,1-10,3.32c-8.93.86-18.94-3.49-23.29-10.93-1.33-2.28-3.9-7.75-3.9-7.75s-2.6-8.73-1.83-13.84c.51-3.37,1.47-7.29,3-8.66"/><path class="cls-4" d="M115.74,76.62a16.25,16.25,0,0,1,8.38-5.43"/><line class="cls-5" x1="15.33" y1="184.53" x2="391.01" y2="183.82"/><path class="cls-6" d="M274.72,208.05c0,4.72-47,8.37-77.39,8.37s-77.4-3.65-77.4-8.37,47-8.54,77.4-8.54S274.72,203.33,274.72,208.05Z"/></svg>